<svg width="20" height="20" viewBox="0 0 20 20" fill="none" xmlns="http://www.w3.org/2000/svg">
<path d="M10 1C8.81342 2.19491 8.14882 3.81141 8.15176 5.49539C8.15471 7.17936 8.82497 8.79353 10.0157 9.98428C11.2065 11.175 12.8206 11.8453 14.5046 11.8482C16.1886 11.8512 17.8051 11.1866 19 10C19 11.78 18.4722 13.5201 17.4832 15.0001C16.4943 16.4802 15.0887 17.6337 13.4442 18.3149C11.7996 18.9961 9.99002 19.1743 8.24419 18.8271C6.49836 18.4798 4.89472 17.6226 3.63604 16.364C2.37737 15.1053 1.5202 13.5016 1.17294 11.7558C0.82567 10.01 1.0039 8.20038 1.68509 6.55585C2.36628 4.91131 3.51983 3.50571 4.99987 2.51677C6.47991 1.52784 8.21997 1 10 1Z" stroke="url(#paint0_linear_2_590)" stroke-width="2" stroke-linejoin="round"/>
<defs>
<linearGradient id="paint0_linear_2_590" x1="10" y1="1" x2="10" y2="19" gradientUnits="userSpaceOnUse">
<stop stop-color="#ED0E98"/>
<stop offset="1" stop-color="#FE5A2D"/>
</linearGradient>
</defs>
</svg>
